<?xml version="1.0" encoding="iso-8859-1"?>
<!-- Generator: Adobe Illustrator 19.0.0, SVG Export Plug-In . SVG Version: 6.00 Build 0)  -->
<svg version="1.1" id="Layer_1" xmlns="http://www.w3.org/2000/svg" xmlns:xlink="http://www.w3.org/1999/xlink" x="0px" y="0px"
	 viewBox="0 0 512 512" style="enable-background:new 0 0 512 512;" xml:space="preserve">
<polygon style="fill:#E68900;" points="417.032,95.293 363.355,95.293 342.457,119.116 363.355,142.939 417.032,142.939 "/>
<polygon style="fill:#FFAD00;" points="288.779,74.395 309.677,142.939 363.355,142.939 363.355,95.293 "/>
<polygon style="fill:#E68900;" points="363.441,47.646 309.763,47.646 288.865,71.47 309.763,95.293 363.441,95.293 "/>
<polygon style="fill:#FFCE2A;" points="309.677,74.395 235.102,74.395 256,142.939 309.677,142.939 "/>
<polygon style="fill:#FDEB95;" points="202.323,95.293 181.425,119.116 202.323,142.939 256,142.939 256,74.395 "/>
<polygon style="fill:#FFAD00;" points="235.188,26.748 256.086,95.293 309.763,95.293 309.763,47.646 "/>
<g>
	<polygon style="fill:#FFCE2A;" points="255.914,26.748 202.237,47.646 181.339,71.47 202.237,95.293 255.914,95.293 	"/>
	<polygon style="fill:#FFCE2A;" points="309.677,0 256,0 235.102,23.824 256,47.646 309.677,47.646 	"/>
</g>
<g>
	<rect x="202.324" style="fill:#FDEB95;" width="53.676" height="47.646"/>
	<rect x="148.564" y="47.646" style="fill:#FDEB95;" width="53.676" height="47.646"/>
</g>
<polygon style="fill:#FFAD00;" points="202.151,95.293 148.474,95.293 127.576,119.116 148.474,142.939 202.151,142.939 "/>
<rect x="94.793" y="95.295" style="fill:#FFCE2A;" width="53.676" height="47.646"/>
<path style="fill:#303030;" d="M450.831,142.939H235.102L256,512c130.312,0,235.95-105.639,235.95-235.951
	C491.95,226.663,476.768,180.83,450.831,142.939z"/>
<path style="fill:#4A4A4A;" d="M422.38,276.049c0,91.742-74.638,166.38-166.38,166.38V142.939H61.169
	c-25.938,37.891-41.12,83.725-41.12,133.11C20.049,406.361,125.688,512,256,512v-38.224c109.027,0,197.727-88.7,197.727-197.727
	H422.38V276.049z"/>
<path style="fill:#53B400;" d="M359.213,276.031c0-16.437-13.325-29.762-29.762-29.762c-10.503,0-20.52,2.637-29.727,6.7l0,0
	l-60.827,43.725l60.827,43.725c9.208,4.063,19.224,6.7,29.727,6.7c16.437,0,29.762-13.325,29.762-29.762
	c0-8.028-3.184-15.309-8.352-20.662C356.029,291.34,359.213,284.059,359.213,276.031z"/>
<g>
	<path style="fill:#6CD800;" d="M212.275,252.968c-9.208-4.063-19.224-6.7-29.727-6.7c-16.437,0-29.762,13.325-29.762,29.762
		c0,8.028,3.184,15.309,8.352,20.662c-5.167,5.353-8.352,12.634-8.352,20.662c0,16.437,13.325,29.762,29.762,29.762
		c10.503,0,20.519-2.637,29.727-6.7l0,0l30.47-12.94L256,296.693l-17.103-35.488L212.275,252.968z"/>
	<path style="fill:#6CD800;" d="M299.725,252.968c4.063-9.208,6.7-19.224,6.7-29.726c0-16.437-13.325-29.762-29.762-29.762
		c-8.028,0-15.309,3.184-20.662,8.352l-17.103,43.255L256,296.693L299.725,252.968z"/>
	<path style="fill:#6CD800;" d="M256,296.693l-17.103,51.606L256,391.555c5.353,5.167,12.634,8.352,20.662,8.352
		c16.437,0,29.762-13.325,29.762-29.762c0-10.503-2.637-20.519-6.7-29.727L256,296.693z"/>
</g>
<g>
	<path style="fill:#93F340;" d="M256,201.83L256,201.83c-5.353-5.167-12.634-8.352-20.662-8.352
		c-16.437,0-29.762,13.325-29.762,29.762c0,10.503,2.637,20.519,6.7,29.727L256,296.693l0,0V201.83z"/>
	<path style="fill:#93F340;" d="M256,296.693l-43.725,43.725c-4.063,9.208-6.7,19.224-6.7,29.726
		c0,16.437,13.325,29.762,29.762,29.762c8.028,0,15.309-3.184,20.662-8.352l0,0L256,296.693L256,296.693z"/>
</g>
<polygon style="fill:#4A4A4A;" points="485.53,127.265 256,127.265 235.102,142.939 256,158.612 485.53,158.612 "/>
<rect x="26.47" y="127.269" style="fill:#707070;" width="229.533" height="31.347"/>
<g>
</g>
<g>
</g>
<g>
</g>
<g>
</g>
<g>
</g>
<g>
</g>
<g>
</g>
<g>
</g>
<g>
</g>
<g>
</g>
<g>
</g>
<g>
</g>
<g>
</g>
<g>
</g>
<g>
</g>
</svg>
